<svg xmlns="http://www.w3.org/2000/svg" width="171" height="49" viewBox="0 0 171 49">
    <g fill="none" fill-rule="evenodd">
        <rect width="170.552" height="48.156" fill="#000" rx="7"/>
        <g fill="#FFF" fill-rule="nonzero">
            <path d="M17.597 12.45c.026-1.934 1.083-3.721 2.802-4.735-1.09-1.491-2.848-2.403-4.746-2.46-1.997-.201-3.933 1.146-4.95 1.146-1.038 0-2.605-1.126-4.292-1.093-2.22.069-4.239 1.25-5.319 3.111-2.3 3.819-.584 9.43 1.619 12.517 1.102 1.512 2.39 3.2 4.076 3.14 1.65-.065 2.265-1.008 4.256-1.008 1.973 0 2.551 1.008 4.27.97 1.77-.027 2.886-1.518 3.95-3.044.791-1.077 1.4-2.267 1.805-3.526-2.102-.853-3.469-2.828-3.471-5.017z" transform="translate(32.104 11.069)"/>
            <path d="M13.389 3.639C14.366 2.623 14.847 1.318 14.73 0c-1.493.136-2.872.753-3.862 1.73-.977.964-1.473 2.224-1.377 3.504 1.513.014 2.95-.574 3.897-1.595zM35.956 19.55h-4.727l-1.136 3.525h-2.002l4.478-13.043h2.08l4.478 13.043H37.09l-1.134-3.525zm-4.238-1.627h3.747l-1.847-5.721h-.052l-1.848 5.72zM50.162 19.01c0 3.022-1.594 4.963-4 4.963-1.243.066-2.415-.595-3.016-1.7h-.045v4.815h-1.968V14.149h1.905v1.617h.036c.627-1.1 1.8-1.76 3.052-1.719 2.433 0 4.036 1.95 4.036 4.964zm-2.022 0c0-1.968-1.003-3.262-2.533-3.262-1.503 0-2.515 1.322-2.515 3.263 0 1.959 1.012 3.27 2.515 3.27 1.53 0 2.533-1.284 2.533-3.27zM60.195 19.01c0 3.022-1.594 4.963-4 4.963-1.244.066-2.415-.595-3.016-1.7h-.046v4.815h-1.967V14.149h1.904v1.617h.036c.628-1.1 1.8-1.76 3.052-1.719 2.433 0 4.037 1.95 4.037 4.964zm-2.022 0c0-1.968-1.003-3.262-2.534-3.262-1.503 0-2.514 1.322-2.514 3.263 0 1.959 1.011 3.27 2.514 3.27 1.53 0 2.534-1.284 2.534-3.27zM66.713 20.351c.145 1.252 1.404 2.073 3.126 2.073 1.65 0 2.836-.821 2.836-1.95 0-.98-.716-1.566-2.41-1.968l-1.695-.394c-2.401-.56-3.516-1.644-3.516-3.403 0-2.177 1.966-3.673 4.758-3.673 2.763 0 4.657 1.496 4.721 3.673h-1.975c-.118-1.26-1.197-2.02-2.774-2.02-1.576 0-2.655.77-2.655 1.89 0 .891.69 1.417 2.375 1.819l1.44.341c2.683.612 3.798 1.653 3.798 3.499 0 2.361-1.949 3.84-5.048 3.84-2.9 0-4.858-1.444-4.985-3.727h2.004zM78.5 12.039v2.293h1.76v1.575H78.5v5.342c0 .83.352 1.216 1.126 1.216.209-.003.417-.019.625-.046v1.566c-.348.068-.702.099-1.056.092-1.874 0-2.605-.737-2.605-2.616v-5.554h-1.346v-1.575h1.346v-2.293h1.91zM81.263 19.062c0-3.08 1.764-5.017 4.514-5.017 2.76 0 4.515 1.936 4.515 5.017 0 3.089-1.746 5.016-4.515 5.016-2.768 0-4.514-1.927-4.514-5.016zm7.039 0c0-2.113-.942-3.36-2.525-3.36s-2.523 1.256-2.523 3.36c0 2.121.94 3.359 2.523 3.359 1.583 0 2.525-1.238 2.525-3.36zM92.299 14.151h1.92v1.69h.047c.268-1.088 1.252-1.837 2.36-1.794.231 0 .463.025.689.076v1.906c-.293-.09-.598-.132-.905-.123-.592-.024-1.164.214-1.568.654-.403.439-.597 1.034-.53 1.63v5.888H92.3v-9.927zM106.231 21.08c-.273 1.778-2.02 2.998-4.256 2.998-2.875 0-4.66-1.908-4.66-4.97 0-3.07 1.794-5.063 4.575-5.063 2.735 0 4.454 1.861 4.454 4.83v.688h-6.98v.122c-.066.729.188 1.45.697 1.98.509.531 1.223.82 1.961.793.985.091 1.913-.469 2.283-1.377h1.926zm-6.858-2.921h4.941c.037-.655-.204-1.296-.664-1.767-.46-.472-1.098-.732-1.76-.718-.667-.004-1.309.256-1.781.723-.473.466-.738 1.1-.736 1.762zM32.267 1.01c.794-.057 1.572.245 2.119.824.547.579.807 1.373.707 2.164 0 1.92-1.037 3.025-2.826 3.025h-2.17V1.01h2.17zM31.03 6.172h1.133c.567.034 1.12-.19 1.504-.609.384-.42.559-.99.476-1.553.077-.56-.1-1.127-.484-1.543-.383-.416-.932-.639-1.496-.607H31.03v4.312zM36.126 4.512c-.072-.865.292-1.703.94-2.162.648-.458 1.467-.458 2.115 0 .648.459 1.012 1.297.94 2.162.073.867-.29 1.707-.939 2.166-.648.46-1.469.46-2.118 0-.648-.46-1.012-1.299-.938-2.166zm3.135 0c0-1.046-.413-1.659-1.136-1.659-.727 0-1.135.613-1.135 1.66 0 1.055.408 1.662 1.135 1.662.723 0 1.136-.611 1.136-1.663zM45.96 7.023L45.071 7.023 44.173 3.328 44.105 3.328 43.211 7.023 42.33 7.023 41.133 2.006 42.003 2.006 42.781 5.834 42.845 5.834 43.738 2.006 44.56 2.006 45.453 5.834 45.521 5.834 46.295 2.006 47.153 2.006zM48.156 2.106h.894v.781h.07c.24-.575.805-.927 1.404-.876.463-.036.918.15 1.235.506.317.355.461.842.393 1.323v3.183h-.928v-2.94c0-.79-.329-1.182-1.016-1.182-.314-.016-.62.113-.836.353-.216.24-.32.565-.287.893v2.876h-.93V2.106zM54.175 0L55.067 0 55.067 7.023 54.175 7.023zM56.191 4.513c-.072-.866.292-1.704.94-2.163.648-.458 1.467-.458 2.115 0 .648.459 1.012 1.297.94 2.163.073.866-.29 1.706-.939 2.165-.648.46-1.469.46-2.117 0-.649-.46-1.013-1.299-.939-2.165zm3.134 0c0-1.047-.412-1.66-1.135-1.66-.727 0-1.135.613-1.135 1.66 0 1.055.408 1.662 1.135 1.662.723 0 1.135-.611 1.135-1.662zM61.198 5.568c0-.87.641-1.372 1.778-1.444l1.296-.075V3.63c0-.51-.334-.799-.98-.799-.526 0-.891.196-.996.538h-.913c.096-.83.869-1.364 1.953-1.364 1.199 0 1.875.604 1.875 1.625v3.304h-.908v-.68h-.075c-.308.497-.857.787-1.436.76-.406.043-.81-.09-1.114-.366-.304-.276-.478-.669-.48-1.081zm3.074-.413V4.75l-1.168.076c-.658.044-.957.27-.957.697 0 .435.373.689.887.689.303.03.607-.064.84-.263.234-.2.377-.486.398-.794zM66.214 4.442c0-1.577.698-2.576 1.784-2.576.548-.03 1.062.311 1.318.875h.063V0h.848v6.94h-.812v-.79h-.067c-.276.56-.796.895-1.35.872-1.093 0-1.784-1-1.784-2.58zm.876 0c0 1.058.43 1.695 1.149 1.695.714 0 1.156-.646 1.156-1.691 0-1.04-.446-1.696-1.156-1.696-.714 0-1.149.642-1.149 1.692zM74.25 4.512c-.073-.865.291-1.703.94-2.162.647-.458 1.467-.458 2.115 0 .648.459 1.011 1.297.939 2.162.074.867-.29 1.707-.938 2.166-.649.46-1.47.46-2.118 0-.649-.46-1.012-1.299-.938-2.166zm3.134 0c0-1.046-.412-1.659-1.136-1.659-.726 0-1.135.613-1.135 1.66 0 1.055.409 1.662 1.135 1.662.724 0 1.136-.611 1.136-1.663zM80.26 2.106h.894v.781h.07c.24-.575.805-.927 1.404-.876.463-.036.918.15 1.235.506.317.355.461.842.393 1.323v3.183h-.928v-2.94c0-.79-.329-1.182-1.016-1.182-.314-.016-.62.113-.836.353-.216.24-.32.565-.287.893v2.876h-.93V2.106zM89.154 1.003V2.22h1.138v.797h-1.138v2.468c0 .502.227.722.743.722.132 0 .264-.007.395-.021v.788c-.186.03-.374.047-.564.049-1.152 0-1.612-.37-1.612-1.296v-2.71h-.833V2.22h.833V1.003h1.038zM91.296 0h.909v2.783h.072c.25-.595.817-.957 1.417-.904.456-.027.899.168 1.208.532.31.364.454.86.393 1.35v3.262h-.918V4.008c0-.807-.346-1.216-.994-1.216-.32-.028-.633.098-.86.345-.225.247-.339.59-.31.936v2.95h-.917V0zM100.272 5.617c-.243.91-1.047 1.496-1.908 1.394-.587.017-1.15-.25-1.543-.728-.391-.479-.57-1.122-.49-1.759-.079-.638.1-1.283.49-1.766.39-.483.951-.757 1.54-.751 1.225 0 1.964.916 1.964 2.429v.332h-3.11v.053c-.027.357.085.711.308.974.223.263.537.41.865.406.425.056.84-.175 1.048-.584h.836zm-3.056-1.553h2.224c.022-.327-.083-.649-.29-.887-.206-.237-.495-.369-.794-.361-.304-.004-.596.126-.81.361-.215.235-.334.555-.33.887z" transform="translate(32.104 11.069)"/>
        </g>
    </g>
</svg>
