<?xml version="1.0" standalone="no"?>
<!DOCTYPE svg PUBLIC "-//W3C//DTD SVG 1.1//EN" "http://www.w3.org/Graphics/SVG/1.1/DTD/svg11.dtd">
<svg xmlns="http://www.w3.org/2000/svg" xmlns:xlink="http://www.w3.org/1999/xlink" width="171" height="49" viewBox="0 0 171 49">
    <defs>
        <path id="6chggmpywa" d="M0 28.091L116.221 28.091 116.221 0.692 0 0.692z"/>
    </defs>
    <g fill="none" fill-rule="evenodd">
        <rect width="170.552" height="48.197" fill="#000" rx="7"/>
        <g>
            <g transform="translate(27.088 10.054) translate(0 .311)">
                <path fill="#FFF" d="M37.568 4.18c0 .841-.25 1.51-.748 2.01-.567.594-1.304.891-2.211.891-.869 0-1.608-.301-2.215-.904-.61-.602-.912-1.35-.912-2.24 0-.892.303-1.638.912-2.241C33 1.094 33.74.793 34.609.793c.43 0 .844.084 1.235.251.392.169.706.393.942.673l-.53.53c-.398-.476-.947-.715-1.647-.715-.634 0-1.182.223-1.644.668-.463.447-.694 1.025-.694 1.737 0 .711.231 1.29.694 1.735.462.447 1.01.669 1.644.669.672 0 1.232-.224 1.681-.673.291-.291.46-.697.504-1.218h-2.185v-.724h2.916c.028.158.043.308.043.455"/>
                <path stroke="#FFF" stroke-width=".5" d="M37.568 4.18c0 .841-.25 1.51-.748 2.01-.567.594-1.304.891-2.211.891-.869 0-1.608-.301-2.215-.904-.61-.602-.912-1.35-.912-2.24 0-.892.303-1.638.912-2.241C33 1.094 33.74.793 34.609.793c.43 0 .844.084 1.235.251.392.169.706.393.942.673l-.53.53c-.398-.476-.947-.715-1.647-.715-.634 0-1.182.223-1.644.668-.463.447-.694 1.025-.694 1.737 0 .711.231 1.29.694 1.735.462.447 1.01.669 1.644.669.672 0 1.232-.224 1.681-.673.291-.291.46-.697.504-1.218h-2.185v-.724h2.916c.028.158.043.308.043.455z"/>
                <path fill="#FFF" d="M42.192 1.667L39.451 1.667 39.451 3.575 41.922 3.575 41.922 4.298 39.451 4.298 39.451 6.206 42.192 6.206 42.192 6.947 38.677 6.947 38.677 0.927 42.192 0.927z"/>
                <path stroke="#FFF" stroke-width=".5" d="M42.192 1.667L39.451 1.667 39.451 3.575 41.922 3.575 41.922 4.298 39.451 4.298 39.451 6.206 42.192 6.206 42.192 6.947 38.677 6.947 38.677 0.927 42.192 0.927z"/>
                <path fill="#FFF" d="M45.453 6.946L44.68 6.946 44.68 1.666 42.998 1.666 42.998 0.927 47.135 0.927 47.135 1.666 45.453 1.666z"/>
                <path stroke="#FFF" stroke-width=".5" d="M45.453 6.946L44.68 6.946 44.68 1.666 42.998 1.666 42.998 0.927 47.135 0.927 47.135 1.666 45.453 1.666z"/>
                <mask id="r7r6bq0y8b" fill="#fff">
                    <use xlink:href="#6chggmpywa"/>
                </mask>
                <path fill="#FFF" d="M50.127 6.946L50.901 6.946 50.901 0.927 50.127 0.927z" mask="url(#r7r6bq0y8b)"/>
                <path stroke="#FFF" stroke-width=".5" d="M50.127 6.946L50.901 6.946 50.901 0.927 50.127 0.927z" mask="url(#r7r6bq0y8b)"/>
                <path fill="#FFF" d="M54.332 6.946L53.558 6.946 53.558 1.666 51.877 1.666 51.877 0.927 56.013 0.927 56.013 1.666 54.332 1.666z" mask="url(#r7r6bq0y8b)"/>
                <path stroke="#FFF" stroke-width=".5" d="M54.332 6.946L53.558 6.946 53.558 1.666 51.877 1.666 51.877 0.927 56.013 0.927 56.013 1.666 54.332 1.666z" mask="url(#r7r6bq0y8b)"/>
                <path fill="#FFF" d="M60 5.664c.446.452.991.677 1.636.677.644 0 1.19-.225 1.636-.677.445-.451.669-1.027.669-1.727 0-.7-.224-1.277-.67-1.728-.445-.451-.99-.677-1.635-.677s-1.19.226-1.635.677c-.444.45-.668 1.028-.668 1.728s.224 1.276.668 1.727m3.842.504c-.592.609-1.327.913-2.207.913-.88 0-1.615-.304-2.206-.913-.592-.608-.887-1.351-.887-2.231 0-.88.295-1.624.887-2.232.591-.608 1.326-.912 2.206-.912.875 0 1.608.305 2.203.916.594.61.891 1.353.891 2.228 0 .88-.296 1.623-.887 2.231" mask="url(#r7r6bq0y8b)"/>
                <path stroke="#FFF" stroke-width=".5" d="M60 5.664c.446.452.991.677 1.636.677.644 0 1.19-.225 1.636-.677.445-.451.669-1.027.669-1.727 0-.7-.224-1.277-.67-1.728-.445-.451-.99-.677-1.635-.677s-1.19.226-1.635.677c-.444.45-.668 1.028-.668 1.728s.224 1.276.668 1.727zm3.843.504c-.592.609-1.327.913-2.207.913-.88 0-1.615-.304-2.206-.913-.592-.608-.887-1.351-.887-2.231 0-.88.295-1.624.887-2.232.591-.608 1.326-.912 2.206-.912.875 0 1.608.305 2.203.916.594.61.891 1.353.891 2.228 0 .88-.296 1.623-.887 2.231z" mask="url(#r7r6bq0y8b)"/>
                <path fill="#FFF" d="M65.816 6.946L65.816 0.927 66.757 0.927 69.682 5.609 69.716 5.609 69.682 4.449 69.682 0.927 70.457 0.927 70.457 6.946 69.649 6.946 66.589 2.036 66.555 2.036 66.589 3.197 66.589 6.946z" mask="url(#r7r6bq0y8b)"/>
                <path stroke="#FFF" stroke-width=".5" d="M65.816 6.946L65.816 0.927 66.757 0.927 69.682 5.609 69.716 5.609 69.682 4.449 69.682 0.927 70.457 0.927 70.457 6.946 69.649 6.946 66.589 2.036 66.555 2.036 66.589 3.197 66.589 6.946z" mask="url(#r7r6bq0y8b)"/>
                <path fill="#FFF" d="M97.279 24.002h1.871V11.46h-1.871v12.542zm16.862-8.024l-2.146 5.437h-.066l-2.226-5.437h-2.016l3.34 7.6-1.905 4.227h1.953l5.147-11.827h-2.081zm-10.618 6.6c-.613 0-1.468-.308-1.468-1.066 0-.967 1.065-1.34 1.985-1.34.822 0 1.21.179 1.71.42-.145 1.162-1.145 1.985-2.227 1.985zm.226-6.875c-1.355 0-2.76.598-3.34 1.92l1.661.694c.357-.694 1.018-.92 1.711-.92.968 0 1.953.581 1.968 1.614v.129c-.339-.194-1.064-.484-1.952-.484-1.79 0-3.615.985-3.615 2.824 0 1.678 1.47 2.76 3.115 2.76 1.258 0 1.953-.565 2.388-1.227h.064v.968h1.808v-4.809c0-2.226-1.662-3.47-3.808-3.47zM92.18 17.505h-2.662v-4.3h2.662c1.399 0 2.194 1.159 2.194 2.15 0 .972-.795 2.15-2.194 2.15zm-.049-6.046h-4.485v12.543h1.872V19.25h2.613c2.075 0 4.116-1.502 4.116-3.895s-2.041-3.896-4.116-3.896zm-24.46 11.12c-1.293 0-2.376-1.082-2.376-2.57 0-1.503 1.083-2.602 2.376-2.602 1.277 0 2.28 1.099 2.28 2.603 0 1.487-1.003 2.57-2.28 2.57zm2.15-5.899h-.065c-.42-.5-1.228-.954-2.246-.954-2.134 0-4.09 1.876-4.09 4.284 0 2.392 1.956 4.25 4.09 4.25 1.018 0 1.825-.452 2.246-.97h.065v.614c0 1.634-.873 2.505-2.28 2.505-1.146 0-1.857-.823-2.148-1.518l-1.633.679c.469 1.13 1.713 2.52 3.782 2.52 2.199 0 4.057-1.292 4.057-4.444v-7.661H69.82v.695zm3.071 7.322h1.874V11.46h-1.874v12.542zm4.638-4.138c-.047-1.649 1.278-2.489 2.231-2.489.744 0 1.374.372 1.584.905l-3.815 1.584zm5.819-1.422c-.355-.953-1.438-2.716-3.652-2.716-2.2 0-4.025 1.73-4.025 4.268 0 2.391 1.81 4.267 4.235 4.267 1.955 0 3.087-1.196 3.555-1.892l-1.455-.97c-.484.712-1.146 1.18-2.1 1.18-.954 0-1.633-.436-2.069-1.293l5.705-2.36-.194-.484zm-45.455-1.406v1.81h4.332c-.13 1.018-.469 1.762-.986 2.278-.63.631-1.617 1.327-3.346 1.327-2.667 0-4.752-2.15-4.752-4.817 0-2.667 2.085-4.818 4.752-4.818 1.438 0 2.489.566 3.264 1.295l1.277-1.277c-1.082-1.035-2.52-1.827-4.541-1.827-3.653 0-6.724 2.974-6.724 6.627 0 3.652 3.07 6.627 6.724 6.627 1.971 0 3.459-.648 4.622-1.86 1.197-1.195 1.568-2.876 1.568-4.234 0-.42-.032-.808-.097-1.13h-6.093zm11.115 5.543c-1.294 0-2.41-1.066-2.41-2.585 0-1.536 1.116-2.587 2.41-2.587 1.293 0 2.407 1.05 2.407 2.587 0 1.519-1.114 2.585-2.407 2.585zm0-6.853c-2.36 0-4.283 1.795-4.283 4.268 0 2.457 1.923 4.267 4.283 4.267 2.36 0 4.283-1.81 4.283-4.267 0-2.473-1.924-4.268-4.283-4.268zm9.343 6.853c-1.292 0-2.408-1.066-2.408-2.585 0-1.536 1.116-2.587 2.408-2.587 1.293 0 2.409 1.05 2.409 2.587 0 1.519-1.116 2.585-2.41 2.585zm0-6.853c-2.36 0-4.283 1.795-4.283 4.268 0 2.457 1.923 4.267 4.283 4.267 2.36 0 4.284-1.81 4.284-4.267 0-2.473-1.923-4.268-4.284-4.268z" mask="url(#r7r6bq0y8b)"/>
            </g>
            <g>
                <path fill="#00D9FF" d="M.465.4C.173.706 0 1.186 0 1.808v22.187c0 .622.173 1.1.465 1.41l.073.072 12.43-12.429v-.294L.538.326.465.399z" transform="translate(27.088 10.054) translate(0 1.003)"/>
                <path fill="#FFCA00" d="M12.968 12.755v.294l4.142 4.145.096-.053 4.908-2.79c1.402-.796 1.402-2.1 0-2.897l-4.908-2.789-.095-.053-4.143 4.143z" transform="translate(27.088 10.054) translate(0 1.003)"/>
                <path fill="#F82E45" d="M.465 25.405c.24.256.564.394.94.4h.043c.334-.006.707-.114 1.101-.338l14.657-8.327-4.238-4.237L.465 25.405z" transform="translate(27.088 10.054) translate(0 1.003)"/>
                <path fill="#00F271" d="M.465.4l12.503 12.503 4.238-4.24L2.549.338C2.146.108 1.764 0 1.425 0 1.04 0 .709.14.465.4" transform="translate(27.088 10.054) translate(0 1.003)"/>
            </g>
        </g>
    </g>
</svg>